<?xml version="1.0" encoding="utf-8"?>
<!-- Generator: Adobe Illustrator 21.0.2, SVG Export Plug-In . SVG Version: 6.00 Build 0)  -->
<svg version="1.1" id="london-logo" xmlns="http://www.w3.org/2000/svg" xmlns:xlink="http://www.w3.org/1999/xlink" x="0px"
	 y="0px" viewBox="0 0 3000 3000" style="enable-background:new 0 0 3000 3000;" xml:space="preserve">
<style type="text/css">
	.st0{fill:#B0B5BF;}
	.st1{fill:none;}
	.st2{fill:#004438;}
</style>
<path id="grey-bg" class="st0" d="M593,121v1570c0,0,20,238,289,281h1598V402c0,0-25-241-300-281H593z"/>
<g id="canada">
	<polygon class="st1" points="1667,2808 1709,2808 1687,2761 	"/>
	<polygon class="st1" points="1107,2808 1149,2808 1127,2761 	"/>
	<path class="st1" d="M1977,2750c-18-12-52-9-52-9v125c0,0,41,10,66-28S1995,2762,1977,2750z"/>
	<polygon class="st1" points="2200,2809 2242,2809 2220,2762 	"/>
	<path class="st2" d="M866,2737c19.9,0,37.7,8.8,49.8,22.8l13.8-20.4c-16.3-16.3-38.8-26.4-63.7-26.4c-49.7,0-90,40.3-90,90
		s40.3,90,90,90c24.8,0,47.3-10,63.6-26.3l-16.8-17.2c-12,12-28.5,19.5-46.8,19.5c-36.5,0-66-29.5-66-66S829.5,2737,866,2737z"/>
	<path class="st2" d="M1044,2890h29l24-60l63,1l24,59h32l-89-189L1044,2890z M1107,2808l20-47l22,47H1107z"/>
	<path class="st2" d="M1455.5,2715.9c-0.9,0.1-1.5,0.8-1.4,1.7c0.7,10.4,4.3,71.9,1.2,109.9c-0.1,1.4-1.8,1.9-2.7,0.9L1346,2709
		c-1.7-1.8-7-0.6-7,1.9v177.5c0,0.9,0.7,1.6,1.6,1.6h22.9c0.9,0,1.6-0.7,1.6-1.6v-113.3c0-1.4,1.8-2.1,2.7-1l108.6,121.9
		c1,1.1,2.7,0.4,2.7-1l1.9-141c0,0-1-21,1-31C1483.8,2713.8,1461.9,2715.4,1455.5,2715.9z"/>
	<path class="st2" d="M1604,2890h29l24-60l63,1l24,59h32l-89-189L1604,2890z M1667,2808l20-47l22,47H1667z"/>
	<path class="st2" d="M1898,2718v172c0,0,44,6,80-8s45-52,45-52s18.5-45.9-16-89C1979,2706,1898,2718,1898,2718z M1991,2838
		c-25,38-66,28-66,28v-125c0,0,34-3,52,9S2016,2800,1991,2838z"/>
	<path class="st2" d="M2220,2702l-83,189h29l24-60l63,1l24,59h32L2220,2702z M2200,2809l20-47l22,47H2200z"/>
</g>
<g id="london">
	<ellipse class="st1" cx="2066.5" cy="2473" rx="94.5" ry="97"/>
	<ellipse class="st1" cx="1001.5" cy="2473" rx="94.5" ry="97"/>
	<path class="st1" d="M1709,2377c-31-4-82.3,14.8-91,66c-8,47,2.7,70.7,16,92c8.5,13.6,22,22.6,32.2,28c8.3,4.3,17.4,6.7,26.7,7
		c60.5,2.1,71.1-33,71.1-33v-131C1764,2406,1740,2381,1709,2377z"/>
	<path class="st2" d="M601,2557c-8,0-8-7-8-7c-1-98,3-393,3-393h-82v467h296l3-76C759,2564,609,2557,601,2557z"/>
	<path class="st2" d="M1001,2315c-87.3,0-158,70.7-158,158s70.7,158,158,158s158-70.7,158-158S1088.3,2315,1001,2315z M1001.5,2570
		c-52.2,0-94.5-43.4-94.5-97c0-53.6,42.3-97,94.5-97s94.5,43.4,94.5,97C1096,2526.6,1053.7,2570,1001.5,2570z"/>
	<path class="st2" d="M1380,2318c0,0-78-3-154,42c0,0,8,19,7,135s-2,129-2,129h73c0,0-8-19-6-87s2-142,2-142s28-18,63-16
		s49,28,50,53s1,97,0,122s-2,70-2,70h71v-202C1482,2422,1478,2326,1380,2318z"/>
	<path class="st2" d="M1832,2395c2-76,6-249,6-249l-76,5l4,185c0,0-42-29-98-18c-94.1,18.5-115,104-115,104s-19,84,13,136
		s81,71,112,73s65-4,87-14s35-11,35-11c28-4,42-4,42-4C1832,2576,1830,2471,1832,2395z M1764,2537c0,0-10.5,35.1-71.1,33
		c-9.3-0.3-18.4-2.7-26.7-7c-10.2-5.3-23.8-14.4-32.2-28c-13.3-21.3-24-45-16-92c8.7-51.2,60-70,91-66s55,29,55,29V2537z"/>
	<path class="st2" d="M2066,2315c-87.3,0-158,70.7-158,158s70.7,158,158,158s158-70.7,158-158S2153.3,2315,2066,2315z M2066.5,2570
		c-52.2,0-94.5-43.4-94.5-97c0-53.6,42.3-97,94.5-97s94.5,43.4,94.5,97C2161,2526.6,2118.7,2570,2066.5,2570z"/>
	<path class="st2" d="M2446,2314c0,0-78-3-154,42c0,0,8,19,7,135s-2,129-2,129h73c0,0-8-19-6-87s2-142,2-142s28-18,63-16
		s49,28,50,53s1,97,0,122s-2,70-2,70h71v-202C2548,2418,2544,2322,2446,2314z"/>
</g>
<path id="trunk" class="st2" d="M1971,1751c-27-5-90-6-90-6c-80-10-140-27-140-27c-64-9-84-60-84-60c-36-61-36-149-32-221
	s19-91,19-91c-20-26-30-66-30-66l-77,98l-77-98c0,0-10,40-30,66c0,0,15,19,19,91s4,160-32,221c0,0-20,51-84,60c0,0-60,17-140,27
	c0,0-63,1-90,6s-63,17-68,37v2h497h2h505v-2C2034,1768,1998,1756,1971,1751z"/>
<g id="leaves">
	<path class="st2" d="M1538,1035.5c-2.2-2-5.7-1.9-7.8,0.3c-21.9,22.6-126,143.6,6.7,270.3c2.3,2.2,5.9,2,8-0.3
		C1566.8,1281.2,1668.8,1153.4,1538,1035.5z"/>
	<path class="st2" d="M1536.9,932.1c2.3,2.2,5.9,2,8-0.3c21.9-24.6,123.9-152.4-6.9-270.3c-2.2-2-5.7-1.9-7.8,0.3
		C1508.3,684.4,1404.2,805.4,1536.9,932.1z"/>
	<path class="st2" d="M1533.9,561.1c2.3,2.2,5.9,2,8-0.3c21.9-24.6,123.9-152.4-6.9-270.3c-2.2-2-5.7-1.9-7.8,0.3
		C1505.3,313.4,1401.2,434.4,1533.9,561.1z"/>
	<path class="st2" d="M2007.4,979.8c2-2.2,1.9-5.7-0.3-7.8c-22.6-21.9-143.6-126-270.3,6.7c-2.2,2.3-2,5.9,0.3,8
		C1761.7,1008.6,1889.5,1110.6,2007.4,979.8z"/>
	<path class="st2" d="M1337.4,987.8c2-2.2,1.9-5.7-0.3-7.8c-22.6-21.9-143.6-126-270.3,6.7c-2.2,2.3-2,5.9,0.3,8
		C1091.7,1016.6,1219.5,1118.6,1337.4,987.8z"/>
	<path class="st2" d="M1256.9,1152.8c32.2,6.8,193.9,31.6,231-140.5c0.6-2.9-1.2-5.9-4.1-6.6c-30.5-7.7-187.3-37.8-231.2,140.3
		C1251.9,1149.1,1253.8,1152.1,1256.9,1152.8z"/>
	<path class="st2" d="M1163.8,1195.7c-30.5-7.7-187.3-37.8-231.2,140.3c-0.8,3.1,1.2,6.2,4.3,6.8c32.2,6.8,193.9,31.6,231-140.5
		C1168.6,1199.4,1166.8,1196.4,1163.8,1195.7z"/>
	<path class="st2" d="M1582.9,962.8c32.2,6.8,193.9,31.6,231-140.5c0.6-2.9-1.2-5.9-4.1-6.6c-30.5-7.7-187.3-37.8-231.2,140.3
		C1577.9,959.1,1579.8,962.1,1582.9,962.8z"/>
	<path class="st2" d="M1907.9,769.8c32.2,6.8,193.9,31.6,231-140.5c0.6-2.9-1.2-5.9-4.1-6.6c-30.5-7.7-187.3-37.8-231.2,140.3
		C1902.9,766.1,1904.8,769.1,1907.9,769.8z"/>
	<path class="st2" d="M1908.5,1185.2c-3,0.9-4.8,4.1-3.8,7.1c10.1,31.3,68.7,184,236.6,130.9c2.9-0.9,4.5-3.9,3.7-6.8
		C2136.5,1286.1,2085,1135,1908.5,1185.2z"/>
	<path class="st2" d="M1821.3,1139.2c2.9-0.9,4.5-3.9,3.7-6.8c-8.5-30.3-60-181.4-236.5-131.2c-3,0.9-4.8,4.1-3.8,7.1
		C1594.8,1039.6,1653.4,1192.3,1821.3,1139.2z"/>
	<path class="st2" d="M1498,955.4c-8.5-30.3-60-181.4-236.5-131.2c-3,0.9-4.8,4.1-3.8,7.1c10.1,31.3,68.7,184,236.6,130.9
		C1497.2,961.3,1498.8,958.3,1498,955.4z"/>
	<path class="st2" d="M1167.3,775.2c2.9-0.9,4.5-3.9,3.7-6.8c-8.5-30.3-60-181.4-236.5-131.2c-3,0.9-4.8,4.1-3.8,7.1
		C940.8,675.6,999.4,828.3,1167.3,775.2z"/>
	<path class="st2" d="M1434,812.7c2.9,0.7,5.9-1,6.7-3.9c8.6-30.3,43.5-186-133.2-235.3c-3-0.8-6.2,1-6.9,4.1
		C1292.9,609.5,1263.1,770.3,1434,812.7z"/>
	<path class="st2" d="M1638.5,1153.5c-3-0.8-6.2,1-6.9,4.1c-7.7,32-37.5,192.8,133.4,235.2c2.9,0.7,5.9-1,6.7-3.9
		C1780.3,1358.5,1815.2,1202.8,1638.5,1153.5z"/>
	<path class="st2" d="M1435.9,1152.7c-31.3,10-184.2,68.2-131.5,236.2c0.9,2.9,3.9,4.5,6.8,3.7c30.3-8.4,181.5-59.6,131.8-236.1
		C1442.2,1153.5,1439,1151.7,1435.9,1152.7z"/>
	<path class="st2" d="M1757.5,572.1c-30.8,11.4-180.9,76.4-120.8,241.9c1,2.8,4.1,4.4,7,3.4c29.9-9.7,178.7-67.7,121-241.8
		C1763.7,572.5,1760.4,571,1757.5,572.1z"/>
	<path class="st2" d="M1841.2,755c27-16.1,159.3-105.5,64.6-262.6c-1.6-2.7-5.2-3.5-7.8-1.8c-27.5,17.9-159.6,114.5-64.3,262.6
		C1835.3,755.8,1838.6,756.6,1841.2,755z"/>
	<path class="st2" d="M1237.1,767.6c2.7,1.4,6,0.5,7.5-2.1c15.9-27.2,88.5-169.3-70.3-261.1c-2.7-1.6-6.3-0.6-7.7,2.2
		C1151.1,535.6,1082.2,683.9,1237.1,767.6z"/>
	<path class="st2" d="M1488.3,618c3-0.1,5.4-2.6,5.4-5.6c0-31.5-9-190.8-192.4-190c-3.2,0-5.7,2.6-5.6,5.8
		C1297.1,461,1312.3,623.9,1488.3,618z"/>
	<path class="st2" d="M1579.2,618c176,5.9,191.3-156.9,192.6-189.8c0.1-3.2-2.4-5.8-5.6-5.8c-183.4-0.8-192.4,158.5-192.4,190
		C1573.8,615.4,1576.2,617.9,1579.2,618z"/>
	<path class="st2" d="M934.1,922.4c29.5,14.5,179.9,78.8,258.7-78.7c1.3-2.7,0.3-6-2.3-7.4c-27.7-15-172-83.2-258.8,78.5
		C930.2,917.5,931.3,921,934.1,922.4z"/>
	<path class="st2" d="M1880.9,827.2c-2.7,1.4-3.7,4.7-2.3,7.4c78.7,157.5,229.2,93.3,258.7,78.7c2.8-1.4,3.9-4.9,2.4-7.7
		C2052.9,744.1,1908.6,812.2,1880.9,827.2z"/>
	<path class="st2" d="M938.9,1058.2c-2.7,1.4-3.7,4.7-2.3,7.4c78.7,157.5,229.2,93.3,258.7,78.7c2.8-1.4,3.9-4.9,2.4-7.7
		C1110.9,975.1,966.6,1043.2,938.9,1058.2z"/>
	<path class="st2" d="M2148.1,1054.4c-26.5-16.9-165.7-95.1-263.7,60c-1.7,2.7-0.8,6.2,1.9,7.8c28.4,16.6,173.9,91.3,263.6-60.2
		C2151.5,1059.4,2150.7,1056.1,2148.1,1054.4z"/>
	<path class="st2" d="M1839.9,1191c-2.8-1.5-6.3-0.5-7.7,2.3c-14.9,29.3-81.2,178.9,75.3,259.7c2.7,1.4,6,0.4,7.5-2.2
		C1930.4,1423.3,2000.4,1279.9,1839.9,1191z"/>
	<path class="st2" d="M1240,1212c-160.5,88.9-90.4,232.3-75,259.8c1.5,2.6,4.8,3.6,7.5,2.2c156.4-80.8,90.2-230.4,75.3-259.7
		C1246.3,1211.5,1242.8,1210.5,1240,1212z"/>
</g>
</svg>
